# xmcd
#
# Track frame offsets:
#	183
#	12113
#	24963
#	36030
#	50700
#	59613
#	70543
#	82430
#	94295
#	106718
#	117210
#	127143
#	139765
#	150523
#	163595
#	173060
#	187638
#	201013
#	212953
#	224195
#	234058
#	245975
#	259495
#	270568
#
# Disc length: 3752
#
# Revision: 2
# Processed by: cddbd v1.5.1PL0 Copyright (c) Steve Scherf et al.
# Submitted via: EasyCDDAExtractor 5.1.0
# Normalized: r1:DSETVAR1
#
DISCID=5d0ea618
DTITLE=Various Artist - Nostalgias CD 3
DYEAR=1900
DGENRE=
TTITLE0=Chubby Checker - The Twist
TTITLE1=Ray Peterson - Tell Laura I Love Her
TTITLE2=Bobby Vee - Rubber Ball
TTITLE3=Kathy Young - A Thousand stars
TTITLE4=Bob Luman - Let's Think about living
TTITLE5=Johnny Tilotson - Poetry in motion
TTITLE6=The Drifters - Save the last dance for me
TTITLE7=The Shirelles - Will you love me tomorrow
TTITLE8=Holywwod Argyles - Alley Oop
TTITLE9=Bobby Rydell - Wild One
TTITLE10=The Chordettes - Lolli Pop
TTITLE11=The Archies - Sugar - Sugar
TTITLE12=Gene Chandler - Duke or Earl
TTITLE13=Dee Clarck - Raindrops
TTITLE14=Joey dee - Peppermint Twist
TTITLE15=Sue Thompson - Sad Movies make me cry
TTITLE16=The Platters - I'm Sorry
TTITLE17=Dion - The Wanderer
TTITLE18=Del Shanon - Runaway
TTITLE19=The Marcels - Blue Moon
TTITLE20=Pat Boone - Moody River
TTITLE21=Ben E.King - Stand By Me
TTITLE22=Bobby Lewis - Tossin' and Turnin'
TTITLE23=Chubby Cheker - Pony Time
EXTD=
EXTT0=
EXTT1=
EXTT2=
EXTT3=
EXTT4=
EXTT5=
EXTT6=
EXTT7=
EXTT8=
EXTT9=
EXTT10=
EXTT11=
EXTT12=
EXTT13=
EXTT14=
EXTT15=
EXTT16=
EXTT17=
EXTT18=
EXTT19=
EXTT20=
EXTT21=
EXTT22=
EXTT23=
PLAYORDER=
